<svg xmlns="http://www.w3.org/2000/svg" width="31" height="29" viewBox="0 0 31 29">
  <metadata><?xpacket begin="﻿" id="W5M0MpCehiHzreSzNTczkc9d"?>
<x:xmpmeta xmlns:x="adobe:ns:meta/" x:xmptk="Adobe XMP Core 5.6-c138 79.159824, 2016/09/14-01:09:01        ">
   <rdf:RDF xmlns:rdf="http://www.w3.org/1999/02/22-rdf-syntax-ns#">
      <rdf:Description rdf:about=""/>
   </rdf:RDF>
</x:xmpmeta>
                                                                                                    
                                                                                                    
                                                                                                    
                                                                                                    
                                                                                                    
                                                                                                    
                                                                                                    
                                                                                                    
                                                                                                    
                                                                                                    
                                                                                                    
                                                                                                    
                                                                                                    
                                                                                                    
                                                                                                    
                                                                                                    
                                                                                                    
                                                                                                    
                                                                                                    
                                                                                                    
                           
<?xpacket end="w"?></metadata>
<defs>
    <style>
      .cls-1 {
        fill: #595959;
        fill-rule: evenodd;
      }
    </style>
  </defs>
  <path id="icon_shopping_cart" data-name="icon_shopping cart" class="cls-1" d="M2647.64,2634.36h21.05l2.37-8.41a1.216,1.216,0,0,1,1.2-.96h3.53a1.21,1.21,0,0,1,0,2.42h-2.61l-5.48,20.55a3.025,3.025,0,0,1,1.09.71,3.139,3.139,0,0,1,0,4.42l-0.05.05a3.134,3.134,0,0,1-2.16.86,3.025,3.025,0,0,1-2.19-.91,3.1,3.1,0,0,1-.92-2.22,4.39,4.39,0,0,1,.71-1.89h-9.02a3.825,3.825,0,0,1,.12,1.89,3.118,3.118,0,0,1-5.32,2.22h-0.01a3.133,3.133,0,0,1-.42-3.89,1.205,1.205,0,0,1,.16-2.4h15.81l0.93-2.94h-17.29a1.485,1.485,0,0,1-1.37-1.07l-1.74-6.78a1.207,1.207,0,0,1,.86-1.47,1.177,1.177,0,0,1,.31-0.05h0Zm18.93,14.84h0a0.662,0.662,0,0,1-.15.01v0.01h-0.04a1.659,1.659,0,0,0-1.46,1.65,1.718,1.718,0,0,0,.48,1.2,1.671,1.671,0,0,0,1.18.47,1.609,1.609,0,0,0,1.15-.45l0.04-.02a1.71,1.71,0,0,0,.47-1.2,1.691,1.691,0,0,0-.47-1.17h0a1.679,1.679,0,0,0-1.19-.5h-0.01Zm-14.2.02h-0.41a1.724,1.724,0,0,0-.95.45l-0.03.03a1.7,1.7,0,0,0-.48,1.17,1.718,1.718,0,0,0,.48,1.2,1.671,1.671,0,0,0,1.18.47,1.654,1.654,0,0,0,1.18-.47,1.683,1.683,0,0,0,.49-1.2,1.665,1.665,0,0,0-.49-1.17,1.606,1.606,0,0,0-.97-0.48h0Zm15.56-12.67h-19.54l1.51,5.12h16.53l1.5-5.12h0Z" transform="translate(-2646 -2625)"/>
</svg>
