<svg xmlns="http://www.w3.org/2000/svg" width="28.06" height="24" viewBox="0 0 28.06 24">
  <metadata><?xpacket begin="﻿" id="W5M0MpCehiHzreSzNTczkc9d"?>
<x:xmpmeta xmlns:x="adobe:ns:meta/" x:xmptk="Adobe XMP Core 5.6-c138 79.159824, 2016/09/14-01:09:01        ">
   <rdf:RDF xmlns:rdf="http://www.w3.org/1999/02/22-rdf-syntax-ns#">
      <rdf:Description rdf:about=""/>
   </rdf:RDF>
</x:xmpmeta>
                                                                                                    
                                                                                                    
                                                                                                    
                                                                                                    
                                                                                                    
                                                                                                    
                                                                                                    
                                                                                                    
                                                                                                    
                                                                                                    
                                                                                                    
                                                                                                    
                                                                                                    
                                                                                                    
                                                                                                    
                                                                                                    
                                                                                                    
                                                                                                    
                                                                                                    
                                                                                                    
                           
<?xpacket end="w"?></metadata>
<defs>
    <style>
      .cls-1 {
        fill: #f11;
        fill-rule: evenodd;
      }
    </style>
  </defs>
  <path id="收藏之后" class="cls-1" d="M2815.25,2653.69l-10.69-10.2a8.184,8.184,0,0,1-2.3-3.7,6.808,6.808,0,0,1,.14-4.13,8.3,8.3,0,0,1,2.17-3.29,9.208,9.208,0,0,1,3.49-2.01,8.4,8.4,0,0,1,4.44-.12,9.372,9.372,0,0,1,3.51,1.76,9.557,9.557,0,0,1,3.5-1.76,8.575,8.575,0,0,1,4.46.12,9.387,9.387,0,0,1,3.51,2.02,8.418,8.418,0,0,1,2.14,3.28h0.01a6.8,6.8,0,0,1,.13,4.13,8.314,8.314,0,0,1-2.28,3.7l-0.07.04-10.65,10.16a1.063,1.063,0,0,1-1.51-.02v0.02h0Z" transform="translate(-2801.97 -2630)"/>
</svg>
