<svg xmlns="http://www.w3.org/2000/svg" width="28.06" height="24" viewBox="0 0 28.06 24">
  <metadata><?xpacket begin="﻿" id="W5M0MpCehiHzreSzNTczkc9d"?>
<x:xmpmeta xmlns:x="adobe:ns:meta/" x:xmptk="Adobe XMP Core 5.6-c138 79.159824, 2016/09/14-01:09:01        ">
   <rdf:RDF xmlns:rdf="http://www.w3.org/1999/02/22-rdf-syntax-ns#">
      <rdf:Description rdf:about=""/>
   </rdf:RDF>
</x:xmpmeta>
                                                                                                    
                                                                                                    
                                                                                                    
                                                                                                    
                                                                                                    
                                                                                                    
                                                                                                    
                                                                                                    
                                                                                                    
                                                                                                    
                                                                                                    
                                                                                                    
                                                                                                    
                                                                                                    
                                                                                                    
                                                                                                    
                                                                                                    
                                                                                                    
                                                                                                    
                                                                                                    
                           
<?xpacket end="w"?></metadata>
<defs>
    <style>
      .cls-1 {
        fill: #595959;
        fill-rule: evenodd;
      }
    </style>
  </defs>
  <path id="icon_collection" class="cls-1" d="M2815.25,2653.69l-10.69-10.2a8.184,8.184,0,0,1-2.3-3.7,6.808,6.808,0,0,1,.14-4.13,8.3,8.3,0,0,1,2.17-3.29,9.208,9.208,0,0,1,3.49-2.01,8.4,8.4,0,0,1,4.44-.12,9.372,9.372,0,0,1,3.51,1.76,9.557,9.557,0,0,1,3.5-1.76,8.575,8.575,0,0,1,4.46.12,9.387,9.387,0,0,1,3.51,2.02,8.418,8.418,0,0,1,2.14,3.28h0.01a6.8,6.8,0,0,1,.13,4.13,8.314,8.314,0,0,1-2.28,3.7l-0.07.04-10.65,10.16a1.063,1.063,0,0,1-1.51-.02v0.02h0Zm1.71-19.67h0a1.4,1.4,0,0,1-.82.8,1.36,1.36,0,0,1-.82-0.8h0a8.341,8.341,0,0,0-3.35-1.79,6.08,6.08,0,0,0-3.27.09,6.791,6.791,0,0,0-2.64,1.52,6.255,6.255,0,0,0-1.62,2.46,4.847,4.847,0,0,0-.09,2.96,6.071,6.071,0,0,0,1.73,2.77l9.93,9.48,9.88-9.42,0.05-.06a6.2,6.2,0,0,0,1.75-2.77,5.013,5.013,0,0,0-.11-2.96,6.255,6.255,0,0,0-1.62-2.46,6.917,6.917,0,0,0-2.64-1.52,6.074,6.074,0,0,0-3.27-.09,9.508,9.508,0,0,0-3.09,1.79h0Z" transform="translate(-2801.97 -2630)"/>
</svg>
