<svg xmlns="http://www.w3.org/2000/svg" width="36" height="36" viewBox="0 0 36 36">
  <metadata><?xpacket begin="﻿" id="W5M0MpCehiHzreSzNTczkc9d"?>
<x:xmpmeta xmlns:x="adobe:ns:meta/" x:xmptk="Adobe XMP Core 5.6-c138 79.159824, 2016/09/14-01:09:01        ">
   <rdf:RDF xmlns:rdf="http://www.w3.org/1999/02/22-rdf-syntax-ns#">
      <rdf:Description rdf:about=""/>
   </rdf:RDF>
</x:xmpmeta>
                                                                                                    
                                                                                                    
                                                                                                    
                                                                                                    
                                                                                                    
                                                                                                    
                                                                                                    
                                                                                                    
                                                                                                    
                                                                                                    
                                                                                                    
                                                                                                    
                                                                                                    
                                                                                                    
                                                                                                    
                                                                                                    
                                                                                                    
                                                                                                    
                                                                                                    
                                                                                                    
                           
<?xpacket end="w"?></metadata>
<defs>
    <style>
      .cls-1 {
        fill: #676767;
        fill-rule: evenodd;
      }
    </style>
  </defs>
  <path id="分享" class="cls-1" d="M3240,3397a6,6,0,0,0-5.44,3.45l-7.89-1.39a8.807,8.807,0,0,0,.13-1.46,8.379,8.379,0,0,0-2.22-5.69l7.3-7.29a6.179,6.179,0,0,0,2.12.38,6.008,6.008,0,1,0-4.19-1.71l-7.1,7.1a8.4,8.4,0,1,0,3.2,10.97l8.09,1.43V3403A6,6,0,1,0,3240,3397Zm-6-21.6a3.6,3.6,0,1,1-3.6,3.6A3.6,3.6,0,0,1,3234,3375.4Zm-15.6,28.2a6,6,0,1,1,6-6A6,6,0,0,1,3218.4,3403.6Zm21.6,3a3.6,3.6,0,1,1,3.6-3.6A3.6,3.6,0,0,1,3240,3406.6Z" transform="translate(-3210 -3373)"/>
</svg>
