<svg xmlns="http://www.w3.org/2000/svg" width="32" height="33" viewBox="0 0 32 33">
  <metadata><?xpacket begin="﻿" id="W5M0MpCehiHzreSzNTczkc9d"?>
<x:xmpmeta xmlns:x="adobe:ns:meta/" x:xmptk="Adobe XMP Core 5.6-c138 79.159824, 2016/09/14-01:09:01        ">
   <rdf:RDF xmlns:rdf="http://www.w3.org/1999/02/22-rdf-syntax-ns#">
      <rdf:Description rdf:about=""/>
   </rdf:RDF>
</x:xmpmeta>
                                                                                                    
                                                                                                    
                                                                                                    
                                                                                                    
                                                                                                    
                                                                                                    
                                                                                                    
                                                                                                    
                                                                                                    
                                                                                                    
                                                                                                    
                                                                                                    
                                                                                                    
                                                                                                    
                                                                                                    
                                                                                                    
                                                                                                    
                                                                                                    
                                                                                                    
                                                                                                    
                           
<?xpacket end="w"?></metadata>
<defs>
    <style>
      .cls-1 {
        fill: #bfbfbf;
        fill-rule: evenodd;
      }
    </style>
  </defs>
  <path id="icon_not_to_choose" data-name="icon_not to choose" class="cls-1" d="M3705.3,667.833a15.641,15.641,0,0,0-22.51-.094l-0.1.094a16.849,16.849,0,0,0,0,23.328,15.639,15.639,0,0,0,22.52.094l0.09-.094A16.823,16.823,0,0,0,3705.3,667.833Zm-1.71,8.767-11.31,11.675a1.7,1.7,0,0,1-2.5,0l-0.08-.092-5.31-5.448a1.907,1.907,0,0,1-.01-2.6,1.771,1.771,0,0,1,2.52-.03l4.12,4.3,10.08-10.387a1.732,1.732,0,0,1,2.49,0A1.856,1.856,0,0,1,3703.59,676.6Z" transform="translate(-3678 -663)"/>
</svg>
