<?xml version="1.0" standalone="no"?><!DOCTYPE svg PUBLIC "-//W3C//DTD SVG 1.1//EN" "http://www.w3.org/Graphics/SVG/1.1/DTD/svg11.dtd"><svg t="1502760790603" class="icon" style="" viewBox="0 0 1024 1024" version="1.1" xmlns="http://www.w3.org/2000/svg" p-id="2399" xmlns:xlink="http://www.w3.org/1999/xlink" width="32" height="32"><defs><style type="text/css"></style></defs><path d="M512 0C229.228089 0 0 229.228089 0 512s229.228089 512 512 512 512-229.228089 512-512S794.771911 0 512 0zM374.158222 705.171911a27.420444 27.420444 0 1 1 27.420445-27.420444 27.420444 27.420444 0 0 1-27.420445 27.420444z m243.484445 13.937778a47.479467 47.479467 0 1 1-0.034134-94.970311 47.479467 47.479467 0 0 1 0.034134 94.970311zM778.843022 338.830222h-84.946489c-0.477867 0-0.955733-0.1024-1.4336-0.147911-0.580267 0.068267-1.092267 0.250311-1.718044 0.250311h-11.776l-62.122667 249.992534c-2.685156 9.398044-11.844267 12.788622-18.705066 12.788622h-29.354667c-0.898844 0-1.695289-0.318578-2.537245-0.512H363.4176a16.440889 16.440889 0 1 1 0-32.904534h222.663111l12.993422-53.100088H325.984711a16.440889 16.440889 0 1 1 0-32.904534h278.152533c1.001244 0 1.956978 0.125156 2.912712 0.295822l12.401777-50.710755H290.702222a16.440889 16.440889 0 1 1 0-32.904533h336.7936l20.036267-81.885867c2.002489-8.692622 10.581333-12.6976 17.373867-12.140089h25.304177c0.261689 0 0.477867 0.136533 0.739556 0.147911h87.893333c9.090844 0 16.452267 7.532089 16.452267 16.861867s-7.361422 16.873244-16.452267 16.873244z" fill="#bfbfbf" p-id="2400"></path></svg>